{
  "accessors": [
    {
      "bufferView": 1,
      "componentType": 5126,
      "count": 36829,
      "max": [
        295.75164794921875,
        72.708702087402344,
        113.88401794433594
      ],
      "min": [
        -98.934066772460938,
        -216.62126159667969,
        -290.4598388671875
      ],
      "type": "VEC3"
    },
    {
      "bufferView": 1,
      "byteOffset": 441948,
      "componentType": 5126,
      "count": 36829,
      "max": [
        0.99999421834945679,
        0.99999278783798218,
        0.99995100498199463
      ],
      "min": [
        -0.99994850158691406,
        -0.99986237287521362,
        -0.99980974197387695
      ],
      "type": "VEC3"
    },
    {
      "bufferView": 2,
      "componentType": 5126,
      "count": 36829,
      "max": [
        0.16078431904315948,
        0.11372549086809158,
        0,
        1
      ],
      "min": [
        0.090196080505847931,
        0,
        0,
        1
      ],
      "type": "VEC4"
    },
    {
      "bufferView": 0,
      "componentType": 5125,
      "count": 220350,
      "max": [
        36828
      ],
      "min": [
        0
      ],
      "type": "SCALAR"
    },
    {
      "bufferView": 1,
      "byteOffset": 883896,
      "componentType": 5126,
      "count": 10251,
      "max": [
        146.78768920898438,
        19.521814346313477,
        50.967670440673828
      ],
      "min": [
        -121.27180480957031,
        -145.93267822265625,
        -245.90762329101562
      ],
      "type": "VEC3"
    },
    {
      "bufferView": 1,
      "byteOffset": 1006908,
      "componentType": 5126,
      "count": 10251,
      "max": [
        0.99816012382507324,
        0.99936389923095703,
        0.99940425157546997
      ],
      "min": [
        -0.9996650218963623,
        -0.99990862607955933,
        -0.99939000606536865
      ],
      "type": "VEC3"
    },
    {
      "bufferView": 2,
      "byteOffset": 589264,
      "componentType": 5126,
      "count": 10251,
      "max": [
        0.49019607901573181,
        0.49019607901573181,
        0.49019607901573181,
        1
      ],
      "min": [
        0.08235294371843338,
        0.08235294371843338,
        0.08235294371843338,
        1
      ],
      "type": "VEC4"
    },
    {
      "bufferView": 0,
      "byteOffset": 881400,
      "componentType": 5125,
      "count": 61254,
      "max": [
        10250
      ],
      "min": [
        0
      ],
      "type": "SCALAR"
    },
    {
      "bufferView": 1,
      "byteOffset": 1129920,
      "componentType": 5126,
      "count": 318,
      "max": [
        86.002876281738281,
        -82.227043151855469,
        36.492610931396484
      ],
      "min": [
        68.724586486816406,
        -105.38075256347656,
        19.174327850341797
      ],
      "type": "VEC3"
    },
    {
      "bufferView": 1,
      "byteOffset": 1133736,
      "componentType": 5126,
      "count": 318,
      "max": [
        0.99970823526382446,
        0.99890309572219849,
        0.99288636445999146
      ],
      "min": [
        -0.99720102548599243,
        -0.9870375394821167,
        -0.99656248092651367
      ],
      "type": "VEC3"
    },
    {
      "bufferView": 2,
      "byteOffset": 753280,
      "componentType": 5126,
      "count": 318,
      "max": [
        0.72549021244049072,
        0.72549021244049072,
        0.72549021244049072,
        1
      ],
      "min": [
        0.71764707565307617,
        0.71764707565307617,
        0.71764707565307617,
        1
      ],
      "type": "VEC4"
    },
    {
      "bufferView": 0,
      "byteOffset": 1126416,
      "componentType": 5125,
      "count": 1944,
      "max": [
        317
      ],
      "min": [
        0
      ],
      "type": "SCALAR"
    },
    {
      "bufferView": 1,
      "byteOffset": 1137552,
      "componentType": 5126,
      "count": 65532,
      "max": [
        151.66703796386719,
        59.8177490234375,
        78.25567626953125
      ],
      "min": [
        -105.34231567382812,
        -210.31546020507812,
        -222.98150634765625
      ],
      "type": "VEC3"
    },
    {
      "bufferView": 1,
      "byteOffset": 1923936,
      "componentType": 5126,
      "count": 65532,
      "max": [
        0.99983566999435425,
        0.99998921155929565,
        0.99999213218688965
      ],
      "min": [
        -0.99937766790390015,
        -0.99999988079071045,
        -0.99997735023498535
      ],
      "type": "VEC3"
    },
    {
      "bufferView": 2,
      "byteOffset": 758368,
      "componentType": 5126,
      "count": 65532,
      "max": [
        0.29019609093666077,
        0.66274511814117432,
        0.67058825492858887,
        1
      ],
      "min": [
        0.22352941334247589,
        0.51372551918029785,
        0.51764708757400513,
        1
      ],
      "type": "VEC4"
    },
    {
      "bufferView": 0,
      "byteOffset": 1134192,
      "componentType": 5125,
      "count": 364086,
      "max": [
        65531
      ],
      "min": [
        0
      ],
      "type": "SCALAR"
    },
    {
      "bufferView": 1,
      "byteOffset": 2710320,
      "componentType": 5126,
      "count": 65532,
      "max": [
        155.21281433105469,
        62.917701721191406,
        74.912551879882812
      ],
      "min": [
        -107.04790496826172,
        -206.78872680664062,
        -225.35675048828125
      ],
      "type": "VEC3"
    },
    {
      "bufferView": 1,
      "byteOffset": 3496704,
      "componentType": 5126,
      "count": 65532,
      "max": [
        0.99981021881103516,
        0.99996912479400635,
        0.99999213218688965
      ],
      "min": [
        -0.99992334842681885,
        -0.99999988079071045,
        -0.99998438358306885
      ],
      "type": "VEC3"
    },
    {
      "bufferView": 2,
      "byteOffset": 1806880,
      "componentType": 5126,
      "count": 65532,
      "max": [
        0.29019609093666077,
        0.66274511814117432,
        0.67058825492858887,
        1
      ],
      "min": [
        0.21568627655506134,
        0.50196081399917603,
        0.50196081399917603,
        1
      ],
      "type": "VEC4"
    },
    {
      "bufferView": 0,
      "byteOffset": 2590536,
      "componentType": 5125,
      "count": 332271,
      "max": [
        65531
      ],
      "min": [
        0
      ],
      "type": "SCALAR"
    },
    {
      "bufferView": 1,
      "byteOffset": 4283088,
      "componentType": 5126,
      "count": 2779,
      "max": [
        148.97535705566406,
        53.061058044433594,
        78.912712097167969
      ],
      "min": [
        -102.40046691894531,
        -200.88851928710938,
        -220.22187805175781
      ],
      "type": "VEC3"
    },
    {
      "bufferView": 1,
      "byteOffset": 4316436,
      "componentType": 5126,
      "count": 2779,
      "max": [
        0.99992901086807251,
        0.99941736459732056,
        0.99985700845718384
      ],
      "min": [
        -0.99990290403366089,
        -0.9999728798866272,
        -0.99994450807571411
      ],
      "type": "VEC3"
    },
    {
      "bufferView": 2,
      "byteOffset": 2855392,
      "componentType": 5126,
      "count": 2779,
      "max": [
        0.28627452254295349,
        0.65098041296005249,
        0.66274511814117432,
        1
      ],
      "min": [
        0.22745098173618317,
        0.5215686559677124,
        0.52549022436141968,
        1
      ],
      "type": "VEC4"
    },
    {
      "bufferView": 0,
      "byteOffset": 3919620,
      "componentType": 5125,
      "count": 3465,
      "max": [
        2778
      ],
      "min": [
        0
      ],
      "type": "SCALAR"
    },
    {
      "bufferView": 1,
      "byteOffset": 4349784,
      "componentType": 5126,
      "count": 851,
      "max": [
        42.1239013671875,
        -27.878662109375,
        83.749923706054688
      ],
      "min": [
        8.5406455993652344,
        -127.13742065429688,
        27.789783477783203
      ],
      "type": "VEC3"
    },
    {
      "bufferView": 1,
      "byteOffset": 4359996,
      "componentType": 5126,
      "count": 851,
      "max": [
        0.99836164712905884,
        0.99954187870025635,
        0.9998130202293396
      ],
      "min": [
        -0.99962985515594482,
        -0.99961090087890625,
        -0.99786663055419922
      ],
      "type": "VEC3"
    },
    {
      "bufferView": 2,
      "byteOffset": 2899856,
      "componentType": 5126,
      "count": 851,
      "max": [
        1,
        1,
        0.56470590829849243,
        1
      ],
      "min": [
        0.12156862765550613,
        0,
        0,
        1
      ],
      "type": "VEC4"
    },
    {
      "bufferView": 0,
      "byteOffset": 3933480,
      "componentType": 5125,
      "count": 5166,
      "max": [
        850
      ],
      "min": [
        0
      ],
      "type": "SCALAR"
    }
  ],
  "asset": {
    "extras": {
      "author": "x227man (https://sketchfab.com/x227man)",
      "license": "CC-BY-4.0 (http://creativecommons.org/licenses/by/4.0/)",
      "source": "https://sketchfab.com/models/047f5465a2c24a8db309a89d77726cf0",
      "title": "Floating Island #OculusKitbashChallenge"
    },
    "generator": "Sketchfab-3.46.1",
    "version": "2.0"
  },
  "bufferViews": [
    {
      "buffer": 0,
      "byteLength": 3954144,
      "byteOffset": 0,
      "name": "floatBufferViews",
      "target": 34963
    },
    {
      "buffer": 0,
      "byteLength": 4370208,
      "byteOffset": 3954144,
      "byteStride": 12,
      "name": "floatBufferViews",
      "target": 34962
    },
    {
      "buffer": 0,
      "byteLength": 2913472,
      "byteOffset": 8324352,
      "byteStride": 16,
      "name": "floatBufferViews",
      "target": 34962
    }
  ],
  "buffers": [
    {
      "byteLength": 11237824,
      "uri": "scene.bin"
    }
  ],
  "materials": [
    {
      "doubleSided": true,
      "name": "material_0",
      "pbrMetallicRoughness": {
        "baseColorFactor": [
          1,
          1,
          1,
          1
        ],
        "metallicFactor": 0,
        "roughnessFactor": 0.59999999999999998
      }
    }
  ],
  "meshes": [
    {
      "primitives": [
        {
          "attributes": {
            "COLOR_0": 2,
            "NORMAL": 1,
            "POSITION": 0
          },
          "indices": 3,
          "material": 0,
          "mode": 4
        }
      ]
    },
    {
      "primitives": [
        {
          "attributes": {
            "COLOR_0": 6,
            "NORMAL": 5,
            "POSITION": 4
          },
          "indices": 7,
          "material": 0,
          "mode": 4
        }
      ]
    },
    {
      "primitives": [
        {
          "attributes": {
            "COLOR_0": 10,
            "NORMAL": 9,
            "POSITION": 8
          },
          "indices": 11,
          "material": 0,
          "mode": 4
        }
      ]
    },
    {
      "primitives": [
        {
          "attributes": {
            "COLOR_0": 14,
            "NORMAL": 13,
            "POSITION": 12
          },
          "indices": 15,
          "material": 0,
          "mode": 4
        }
      ]
    },
    {
      "primitives": [
        {
          "attributes": {
            "COLOR_0": 18,
            "NORMAL": 17,
            "POSITION": 16
          },
          "indices": 19,
          "material": 0,
          "mode": 4
        }
      ]
    },
    {
      "primitives": [
        {
          "attributes": {
            "COLOR_0": 22,
            "NORMAL": 21,
            "POSITION": 20
          },
          "indices": 23,
          "material": 0,
          "mode": 4
        }
      ]
    },
    {
      "primitives": [
        {
          "attributes": {
            "COLOR_0": 26,
            "NORMAL": 25,
            "POSITION": 24
          },
          "indices": 27,
          "material": 0,
          "mode": 4
        }
      ]
    }
  ],
  "nodes": [
    {
      "children": [
        1
      ],
      "name": "RootNode (gltf orientation matrix)",
      "rotation": [
        -0.70710678118654746,
        -0,
        -0,
        0.70710678118654757
      ]
    },
    {
      "children": [
        2
      ],
      "matrix": [
        0.65599352121353149,
        -0.14252156019210815,
        -0.74118828773498535,
        0,
        0,
        0.98201006650924683,
        -0.18882866203784943,
        0,
        0.75476652383804321,
        0.12387038022279739,
        0.64419221878051758,
        0,
        96.647994995117188,
        22.075359344482422,
        19.66021728515625,
        1
      ],
      "name": "RootNode (model correction matrix)"
    },
    {
      "children": [
        3,
        4,
        5,
        6,
        7,
        8,
        9
      ],
      "name": "IslandObj.obj.cleaner.materialmerger.gles"
    },
    {
      "mesh": 0,
      "name": ""
    },
    {
      "mesh": 1,
      "name": ""
    },
    {
      "mesh": 2,
      "name": ""
    },
    {
      "mesh": 3,
      "name": ""
    },
    {
      "mesh": 4,
      "name": ""
    },
    {
      "mesh": 5,
      "name": ""
    },
    {
      "mesh": 6,
      "name": ""
    }
  ],
  "scene": 0,
  "scenes": [
    {
      "name": "OSG_Scene",
      "nodes": [
        0
      ]
    }
  ]
}

